<svg id="svg" version="1.1" xmlns="http://www.w3.org/2000/svg" xmlns:xlink="http://www.w3.org/1999/xlink" width="400" height="400" viewBox="0, 0, 400,400"><g id="svgg"><path id="path0" d="M182.400 3.027 C 178.770 3.332,175.260 3.756,174.600 3.967 C 173.940 4.179,171.915 4.476,170.100 4.628 C 168.285 4.779,166.800 5.037,166.800 5.200 C 166.800 5.363,165.675 5.618,164.300 5.766 C 161.195 6.100,154.014 7.524,153.185 7.970 C 152.846 8.152,151.766 8.434,150.785 8.596 C 149.803 8.758,148.820 9.029,148.600 9.199 C 148.235 9.480,147.302 9.730,144.948 10.174 C 144.480 10.263,143.259 10.620,142.234 10.968 C 141.210 11.315,140.108 11.600,139.786 11.600 C 139.464 11.600,139.200 11.760,139.200 11.955 C 139.200 12.150,138.390 12.431,137.400 12.579 C 136.410 12.728,135.600 12.995,135.600 13.175 C 135.600 13.354,135.015 13.614,134.300 13.753 C 132.827 14.039,129.287 15.350,125.000 17.199 C 124.560 17.389,123.030 18.023,121.600 18.609 C 120.170 19.195,118.730 19.839,118.400 20.040 C 118.070 20.241,117.530 20.517,117.200 20.653 C 111.574 22.981,101.216 28.453,100.867 29.283 C 100.793 29.457,100.534 29.600,100.290 29.600 C 99.721 29.600,94.243 32.829,94.067 33.268 C 93.993 33.451,93.764 33.600,93.558 33.600 C 93.234 33.600,90.603 35.186,89.400 36.106 C 87.157 37.821,85.206 39.200,85.021 39.200 C 84.707 39.200,75.902 45.995,75.356 46.660 C 75.112 46.957,74.747 47.200,74.545 47.200 C 74.343 47.200,73.730 47.711,73.181 48.336 C 72.633 48.961,71.972 49.546,71.713 49.636 C 70.589 50.027,57.989 62.231,54.200 66.598 C 53.100 67.866,51.608 69.555,50.884 70.352 C 48.172 73.336,47.719 73.868,45.486 76.679 C 44.229 78.262,43.200 79.657,43.200 79.779 C 43.200 79.900,42.885 80.347,42.500 80.771 C 41.321 82.070,40.886 82.649,39.112 85.271 C 38.171 86.662,37.311 87.890,37.201 88.000 C 36.541 88.658,34.000 92.739,34.000 93.142 C 34.000 93.408,33.730 93.729,33.400 93.855 C 33.070 93.982,32.800 94.277,32.800 94.511 C 32.800 94.745,32.553 95.221,32.252 95.569 C 31.741 96.157,30.759 97.833,28.951 101.200 C 28.538 101.970,28.096 102.690,27.970 102.800 C 27.843 102.910,26.943 104.530,25.970 106.400 C 24.996 108.270,24.050 109.910,23.866 110.045 C 23.682 110.179,23.560 110.411,23.594 110.558 C 23.653 110.814,22.418 113.507,19.358 119.800 C 18.609 121.340,17.997 122.745,17.998 122.922 C 17.999 123.099,17.627 124.089,17.171 125.122 C 15.469 128.979,15.277 129.456,14.448 131.902 C 13.982 133.277,13.600 134.672,13.600 135.002 C 13.600 135.331,13.431 135.600,13.225 135.600 C 13.018 135.600,12.728 136.410,12.579 137.400 C 12.431 138.390,12.158 139.200,11.973 139.200 C 11.788 139.200,11.501 139.875,11.336 140.700 C 10.956 142.601,11.005 142.427,10.516 143.600 C 10.287 144.150,9.970 145.545,9.812 146.700 C 9.654 147.855,9.382 148.800,9.208 148.800 C 9.034 148.800,8.765 149.636,8.612 150.659 C 8.459 151.681,8.176 152.806,7.985 153.159 C 7.520 154.014,6.104 161.167,5.780 164.300 C 5.638 165.675,5.376 166.800,5.198 166.800 C 5.020 166.800,4.746 168.513,4.589 170.606 C 4.432 172.699,4.162 174.500,3.989 174.607 C 3.816 174.714,3.557 176.556,3.413 178.701 C 3.269 180.845,3.054 183.320,2.934 184.200 C 1.947 191.471,2.785 223.884,3.999 225.400 C 4.175 225.620,4.449 227.375,4.607 229.300 C 4.765 231.225,5.030 232.800,5.196 232.800 C 5.361 232.800,5.623 234.105,5.778 235.700 C 6.096 238.980,7.462 245.871,7.986 246.841 C 8.177 247.194,8.459 248.319,8.612 249.341 C 8.765 250.364,9.050 251.200,9.245 251.200 C 9.440 251.200,9.600 251.582,9.600 252.049 C 9.600 252.675,9.732 252.793,10.100 252.498 C 10.375 252.279,12.670 251.371,15.200 250.482 C 17.730 249.593,24.120 247.310,29.400 245.408 C 34.680 243.507,53.040 236.935,70.200 230.803 C 87.360 224.672,107.955 217.302,115.966 214.427 C 123.977 211.552,130.620 209.200,130.728 209.200 C 130.835 209.200,130.808 206.905,130.667 204.100 C 128.141 153.862,176.596 117.924,224.000 134.877 C 236.821 139.462,250.699 150.274,257.402 160.899 C 259.008 163.446,256.880 163.991,286.005 153.576 C 300.192 148.503,327.190 138.856,346.000 132.137 C 384.375 118.430,380.677 119.888,380.090 118.699 C 378.752 115.990,376.400 110.705,376.400 110.410 C 376.400 110.221,376.265 110.007,376.100 109.933 C 375.935 109.860,375.350 108.906,374.800 107.814 C 373.376 104.987,371.116 101.036,370.787 100.800 C 370.633 100.690,370.380 100.190,370.223 99.688 C 369.952 98.818,367.700 95.134,366.819 94.117 C 366.588 93.851,366.400 93.532,366.400 93.408 C 366.400 93.160,364.436 90.076,363.801 89.328 C 363.580 89.068,362.770 87.933,362.000 86.804 C 359.668 83.387,353.561 75.409,353.168 75.267 C 352.966 75.193,352.800 74.943,352.800 74.710 C 352.800 74.477,352.262 73.727,351.605 73.043 C 350.947 72.359,350.002 71.313,349.505 70.717 C 344.438 64.650,336.431 56.650,329.259 50.491 C 328.676 49.991,327.750 49.174,327.200 48.677 C 325.676 47.298,320.469 43.200,320.242 43.200 C 320.132 43.200,319.552 42.746,318.953 42.192 C 318.355 41.637,316.681 40.385,315.233 39.408 C 313.785 38.431,311.303 36.724,309.718 35.616 C 308.133 34.507,306.663 33.600,306.451 33.600 C 306.240 33.600,306.007 33.451,305.933 33.268 C 305.751 32.814,300.269 29.600,299.677 29.600 C 299.415 29.600,299.200 29.423,299.200 29.208 C 299.200 28.992,298.750 28.702,298.200 28.564 C 297.650 28.426,297.200 28.190,297.200 28.040 C 297.200 27.890,296.165 27.248,294.900 26.613 C 293.635 25.979,291.880 25.011,291.000 24.462 C 290.120 23.913,289.356 23.492,289.303 23.526 C 289.249 23.560,287.854 22.961,286.203 22.194 C 284.551 21.427,281.843 20.170,280.185 19.400 C 278.526 18.630,277.076 18.000,276.963 18.000 C 276.849 18.000,275.911 17.630,274.878 17.178 C 270.315 15.181,267.341 14.071,265.700 13.753 C 264.985 13.614,264.400 13.363,264.400 13.195 C 264.400 13.027,263.748 12.767,262.951 12.617 C 262.154 12.468,261.209 12.191,260.851 12.002 C 260.128 11.620,256.247 10.402,255.000 10.165 C 252.689 9.727,251.762 9.478,251.400 9.199 C 251.180 9.029,250.197 8.758,249.215 8.596 C 248.234 8.434,247.154 8.151,246.815 7.968 C 245.970 7.512,238.754 6.076,235.700 5.758 C 234.325 5.614,233.200 5.357,233.200 5.186 C 233.200 5.015,231.487 4.746,229.394 4.589 C 227.301 4.432,225.502 4.165,225.397 3.995 C 225.292 3.826,223.360 3.561,221.103 3.406 C 218.846 3.252,216.280 3.030,215.400 2.914 C 211.619 2.412,188.773 2.490,182.400 3.027 " stroke="none" fill="#bb3434" fill-rule="evenodd"></path><path id="path1" d="M345.796 132.206 C 326.658 139.045,299.570 148.727,285.600 153.721 C 256.908 163.977,259.007 163.443,257.402 160.899 C 250.699 150.274,236.821 139.462,224.000 134.877 C 176.596 117.924,128.141 153.862,130.667 204.100 C 130.808 206.905,130.835 209.200,130.728 209.200 C 130.620 209.200,123.977 211.552,115.966 214.427 C 107.955 217.302,87.360 224.672,70.200 230.803 C 53.040 236.935,34.680 243.507,29.400 245.408 C 24.120 247.310,17.730 249.593,15.200 250.482 C 10.627 252.089,9.466 252.658,9.765 253.145 C 9.851 253.285,10.033 254.106,10.169 254.970 C 10.306 255.833,10.578 256.733,10.775 256.970 C 10.971 257.206,11.132 257.538,11.132 257.706 C 11.131 258.864,11.735 261.200,12.035 261.200 C 12.236 261.200,12.406 261.605,12.414 262.100 C 12.421 262.595,12.775 263.720,13.200 264.600 C 13.625 265.480,13.979 266.509,13.986 266.886 C 14.000 267.561,14.667 269.298,15.925 271.932 C 16.274 272.665,16.619 273.647,16.690 274.115 C 16.762 274.583,16.959 275.063,17.130 275.183 C 17.300 275.302,17.650 276.123,17.908 277.008 C 18.715 279.777,19.190 280.175,20.818 279.449 C 21.578 279.111,24.763 277.921,27.895 276.805 C 31.028 275.689,36.111 273.875,39.191 272.775 C 42.271 271.675,47.311 269.875,50.391 268.775 C 53.471 267.675,58.558 265.865,61.695 264.751 C 64.833 263.638,68.030 262.484,68.800 262.187 C 69.570 261.889,72.765 260.735,75.900 259.623 C 79.035 258.510,84.120 256.700,87.200 255.600 C 90.280 254.500,95.320 252.700,98.400 251.600 C 101.480 250.500,106.520 248.700,109.600 247.600 C 112.680 246.500,117.765 244.684,120.900 243.564 C 124.035 242.445,128.400 240.896,130.600 240.122 C 132.800 239.348,136.040 238.181,137.800 237.528 L 141.000 236.340 141.800 237.439 C 146.258 243.563,147.843 245.494,150.974 248.611 C 195.822 293.272,270.563 260.384,269.134 196.617 L 269.000 190.634 272.200 189.481 C 273.960 188.848,278.550 187.188,282.400 185.794 C 286.250 184.400,293.000 181.972,297.400 180.398 C 301.800 178.825,307.875 176.651,310.900 175.569 C 313.925 174.486,318.965 172.685,322.100 171.567 C 325.235 170.448,330.230 168.660,333.200 167.593 C 336.170 166.526,341.210 164.726,344.400 163.593 C 347.590 162.460,352.630 160.660,355.600 159.593 C 358.570 158.526,363.520 156.756,366.600 155.660 C 369.680 154.564,375.440 152.497,379.400 151.065 C 383.360 149.634,387.365 148.225,388.300 147.934 C 390.179 147.350,390.533 146.139,389.534 143.726 C 388.959 142.340,389.016 142.544,388.641 140.500 C 388.470 139.565,388.166 138.800,387.965 138.800 C 387.764 138.800,387.594 138.395,387.586 137.900 C 387.579 137.405,387.225 136.280,386.800 135.400 C 386.375 134.520,386.021 133.530,386.013 133.200 C 385.996 132.430,384.449 128.345,383.944 127.735 C 383.733 127.479,383.468 126.763,383.355 126.143 C 383.243 125.524,382.996 124.921,382.807 124.805 C 382.618 124.688,382.332 124.054,382.170 123.396 C 382.009 122.738,381.588 121.654,381.235 120.986 L 380.593 119.772 345.796 132.206 M208.929 149.439 C 239.453 154.591,258.599 186.668,248.736 216.129 C 236.599 252.384,190.680 263.258,163.763 236.251 C 132.597 204.981,152.056 153.069,196.600 148.650 C 199.093 148.403,205.046 148.783,208.929 149.439 M2.109 200.000 C 2.109 200.990,2.187 201.395,2.282 200.900 C 2.378 200.405,2.378 199.595,2.282 199.100 C 2.187 198.605,2.109 199.010,2.109 200.000 " stroke="none" fill="#353434" fill-rule="evenodd"></path><path id="path2" d="M389.972 147.759 C 389.791 147.941,351.721 161.618,308.000 177.206 C 305.030 178.265,298.280 180.692,293.000 182.600 C 287.720 184.508,281.690 186.675,279.600 187.416 C 277.510 188.157,274.381 189.285,272.646 189.923 L 269.492 191.083 269.396 200.242 C 268.897 247.722,224.399 280.273,179.000 266.367 C 165.195 262.138,151.356 252.044,143.118 240.195 C 141.973 238.548,140.899 237.200,140.731 237.200 C 140.563 237.200,137.855 238.120,134.713 239.244 C 128.066 241.622,121.567 243.942,109.600 248.210 C 104.870 249.897,98.525 252.160,95.500 253.238 C 92.475 254.317,87.435 256.119,84.300 257.242 C 81.165 258.364,76.170 260.150,73.200 261.209 C 30.379 276.482,20.145 280.170,19.844 280.437 C 19.645 280.613,20.393 282.604,21.544 284.961 C 22.675 287.277,23.600 289.342,23.600 289.552 C 23.600 289.762,23.735 289.993,23.900 290.067 C 24.065 290.140,24.941 291.640,25.846 293.400 C 28.224 298.025,28.937 299.295,29.500 299.910 C 29.775 300.211,30.000 300.609,30.000 300.794 C 30.000 301.135,32.415 305.000,33.181 305.883 C 33.412 306.149,33.600 306.499,33.600 306.662 C 33.600 306.931,35.522 309.926,35.999 310.400 C 36.475 310.874,37.876 313.058,38.114 313.700 C 38.258 314.085,38.561 314.400,38.787 314.400 C 39.014 314.400,39.200 314.575,39.200 314.789 C 39.200 315.399,46.615 325.075,48.424 326.824 C 49.006 327.387,49.554 328.047,49.641 328.290 C 50.246 329.977,69.051 348.790,71.505 350.163 C 71.863 350.363,72.550 350.952,73.032 351.472 C 73.954 352.467,83.303 359.615,86.802 362.000 C 87.932 362.770,89.068 363.580,89.328 363.801 C 90.282 364.611,93.194 366.400,93.558 366.400 C 93.764 366.400,93.993 366.554,94.067 366.743 C 94.284 367.303,102.597 372.140,109.800 375.898 C 113.545 377.851,122.378 382.000,122.793 382.000 C 123.186 382.000,124.044 382.342,127.800 383.996 C 131.027 385.417,132.520 385.950,133.954 386.192 C 134.859 386.345,135.600 386.614,135.600 386.791 C 135.600 386.967,136.275 387.237,137.100 387.391 C 137.925 387.545,138.780 387.811,139.000 387.980 C 139.519 388.381,144.539 389.863,146.600 390.224 C 147.480 390.378,148.380 390.640,148.600 390.807 C 148.820 390.973,149.803 391.242,150.785 391.404 C 151.766 391.566,152.846 391.845,153.185 392.023 C 154.101 392.505,161.022 393.914,164.000 394.225 C 165.430 394.374,166.690 394.627,166.800 394.787 C 166.910 394.947,168.620 395.277,170.600 395.519 C 172.580 395.762,175.460 396.131,177.000 396.341 C 189.906 398.097,210.094 398.097,223.000 396.341 C 224.540 396.131,227.420 395.762,229.400 395.519 C 231.380 395.277,233.090 394.947,233.200 394.787 C 233.310 394.627,234.570 394.374,236.000 394.225 C 239.028 393.909,245.909 392.501,246.841 392.007 C 247.194 391.820,248.321 391.541,249.346 391.387 C 250.371 391.233,251.299 390.964,251.407 390.789 C 251.515 390.613,252.368 390.348,253.302 390.199 C 255.372 389.869,260.449 388.406,261.000 387.980 C 261.220 387.811,262.075 387.545,262.900 387.391 C 263.725 387.237,264.400 386.967,264.400 386.791 C 264.400 386.614,265.141 386.345,266.046 386.192 C 267.480 385.950,268.973 385.417,272.200 383.996 C 275.923 382.356,276.806 382.000,277.146 382.000 C 277.360 382.000,278.045 381.744,278.668 381.431 C 279.290 381.118,281.960 379.848,284.600 378.608 C 287.240 377.369,290.030 376.001,290.800 375.567 C 291.570 375.134,293.280 374.235,294.600 373.569 C 297.559 372.077,299.337 371.077,299.600 370.756 C 299.710 370.623,300.610 370.070,301.600 369.529 C 304.768 367.797,305.995 367.008,305.997 366.700 C 305.999 366.535,306.215 366.400,306.478 366.400 C 306.883 366.400,309.772 364.633,310.400 364.001 C 310.824 363.575,313.179 362.000,313.392 362.000 C 313.894 362.000,324.702 353.637,326.649 351.743 C 327.359 351.052,328.118 350.422,328.336 350.343 C 329.986 349.747,348.812 330.900,350.163 328.492 C 350.363 328.136,350.948 327.454,351.463 326.976 C 351.979 326.499,352.400 325.904,352.400 325.654 C 352.400 325.404,352.558 325.200,352.751 325.200 C 353.100 325.200,359.320 317.129,362.000 313.197 C 362.770 312.068,363.580 310.932,363.801 310.672 C 364.645 309.678,366.400 306.799,366.400 306.409 C 366.400 306.184,366.537 306.000,366.705 306.000 C 366.873 306.000,367.188 305.643,367.405 305.207 C 367.622 304.772,369.150 302.117,370.800 299.307 C 372.450 296.498,374.250 293.300,374.800 292.200 C 375.350 291.100,375.935 290.140,376.100 290.067 C 376.265 289.993,376.400 289.755,376.400 289.538 C 376.400 289.320,377.373 287.130,378.561 284.671 C 380.918 279.795,381.360 278.755,381.264 278.300 C 381.229 278.135,381.360 278.000,381.555 278.000 C 381.751 278.000,382.029 277.370,382.174 276.600 C 382.318 275.830,382.594 275.200,382.786 275.200 C 382.979 275.200,383.262 274.615,383.414 273.900 C 383.567 273.185,383.874 272.375,384.095 272.100 C 384.317 271.825,384.341 271.597,384.149 271.594 C 383.957 271.591,383.980 271.456,384.200 271.294 C 384.676 270.944,385.521 268.816,386.056 266.616 C 386.268 265.744,386.592 264.844,386.775 264.616 C 386.958 264.387,387.239 263.570,387.400 262.800 C 387.561 262.030,387.827 261.220,387.991 261.000 C 388.455 260.377,389.910 255.211,390.216 253.100 C 390.367 252.055,390.630 251.200,390.800 251.200 C 390.970 251.200,391.235 250.364,391.388 249.341 C 391.541 248.319,391.820 247.194,392.007 246.841 C 392.501 245.909,393.909 239.028,394.225 236.000 C 394.374 234.570,394.627 233.310,394.787 233.200 C 394.947 233.090,395.277 231.380,395.521 229.400 C 395.764 227.420,396.139 224.450,396.354 222.800 C 398.090 209.482,398.090 190.518,396.354 177.200 C 396.139 175.550,395.764 172.580,395.521 170.600 C 395.277 168.620,394.947 166.910,394.787 166.800 C 394.627 166.690,394.374 165.430,394.225 164.000 C 393.909 160.972,392.501 154.091,392.007 153.159 C 391.820 152.806,391.541 151.681,391.388 150.659 C 391.235 149.636,390.963 148.800,390.784 148.800 C 390.605 148.800,390.400 148.514,390.329 148.164 C 390.258 147.814,390.097 147.632,389.972 147.759 M191.400 149.978 C 150.074 157.334,134.786 208.532,165.382 237.106 C 194.776 264.557,242.849 248.416,250.002 208.693 C 256.169 174.444,225.663 143.878,191.400 149.978 " stroke="none" fill="#fbfbfb" fill-rule="evenodd"></path><path id="path3" d="M198.900 148.687 C 199.505 148.778,200.495 148.778,201.100 148.687 C 201.705 148.595,201.210 148.520,200.000 148.520 C 198.790 148.520,198.295 148.595,198.900 148.687 M194.300 149.082 C 194.795 149.178,195.605 149.178,196.100 149.082 C 196.595 148.987,196.190 148.909,195.200 148.909 C 194.210 148.909,193.805 148.987,194.300 149.082 M203.900 149.082 C 204.395 149.178,205.205 149.178,205.700 149.082 C 206.195 148.987,205.790 148.909,204.800 148.909 C 203.810 148.909,203.405 148.987,203.900 149.082 M188.000 150.000 C 187.208 150.254,187.167 150.320,187.800 150.320 C 188.240 150.320,189.050 150.176,189.600 150.000 C 190.392 149.746,190.433 149.680,189.800 149.680 C 189.360 149.680,188.550 149.824,188.000 150.000 M210.400 150.000 C 210.950 150.176,211.760 150.320,212.200 150.320 C 212.833 150.320,212.792 150.254,212.000 150.000 C 211.450 149.824,210.640 149.680,210.200 149.680 C 209.567 149.680,209.608 149.746,210.400 150.000 M381.800 150.214 C 380.800 150.696,380.766 150.751,381.600 150.548 C 382.733 150.271,384.007 149.621,383.400 149.630 C 383.180 149.633,382.460 149.896,381.800 150.214 M183.400 151.386 C 181.855 152.093,182.574 152.103,184.400 151.400 C 185.170 151.103,185.530 150.855,185.200 150.848 C 184.870 150.842,184.060 151.083,183.400 151.386 M215.600 151.400 C 217.426 152.103,218.145 152.093,216.600 151.386 C 215.940 151.083,215.130 150.842,214.800 150.848 C 214.470 150.855,214.830 151.103,215.600 151.400 M179.200 153.000 C 178.650 153.314,178.380 153.572,178.600 153.572 C 178.820 153.572,179.450 153.314,180.000 153.000 C 180.550 152.686,180.820 152.428,180.600 152.428 C 180.380 152.428,179.750 152.686,179.200 153.000 M220.000 153.000 C 220.550 153.314,221.180 153.572,221.400 153.572 C 221.620 153.572,221.350 153.314,220.800 153.000 C 220.250 152.686,219.620 152.428,219.400 152.428 C 219.180 152.428,219.450 152.686,220.000 153.000 M224.600 155.090 C 224.820 155.300,225.720 155.876,226.600 156.370 C 227.480 156.865,227.840 156.970,227.400 156.604 C 226.506 155.861,223.972 154.491,224.600 155.090 M168.787 159.170 C 165.751 161.451,160.354 166.958,158.468 169.700 C 156.531 172.517,157.191 172.002,159.502 168.894 C 161.787 165.821,166.905 160.792,169.712 158.860 C 171.317 157.756,171.931 157.187,171.500 157.204 C 171.445 157.206,170.224 158.091,168.787 159.170 M228.400 157.326 C 228.400 157.416,229.615 158.396,231.100 159.504 C 233.697 161.440,237.969 165.647,240.744 169.000 C 241.968 170.479,242.000 170.494,241.161 169.200 C 239.289 166.312,228.400 156.180,228.400 157.326 M359.400 158.186 C 357.855 158.893,358.574 158.903,360.400 158.200 C 361.170 157.903,361.530 157.655,361.200 157.648 C 360.870 157.642,360.060 157.883,359.400 158.186 M337.000 166.186 C 335.455 166.893,336.174 166.903,338.000 166.200 C 338.770 165.903,339.130 165.655,338.800 165.648 C 338.470 165.642,337.660 165.883,337.000 166.186 M322.600 171.414 C 321.600 171.896,321.566 171.951,322.400 171.748 C 323.533 171.471,324.807 170.821,324.200 170.830 C 323.980 170.833,323.260 171.096,322.600 171.414 M244.200 174.400 C 244.541 175.060,244.911 175.600,245.021 175.600 C 245.131 175.600,244.941 175.060,244.600 174.400 C 244.259 173.740,243.889 173.200,243.779 173.200 C 243.669 173.200,243.859 173.740,244.200 174.400 M311.400 175.414 C 310.400 175.896,310.366 175.951,311.200 175.748 C 312.333 175.471,313.607 174.821,313.000 174.830 C 312.780 174.833,312.060 175.096,311.400 175.414 M307.000 177.014 C 306.000 177.496,305.966 177.551,306.800 177.348 C 307.933 177.071,309.207 176.421,308.600 176.430 C 308.380 176.433,307.660 176.696,307.000 177.014 M152.865 179.417 C 152.195 180.888,152.323 181.202,153.047 179.865 C 153.386 179.240,153.588 178.654,153.496 178.563 C 153.405 178.471,153.121 178.856,152.865 179.417 M246.428 178.600 C 246.428 178.820,246.686 179.450,247.000 180.000 C 247.314 180.550,247.572 180.820,247.572 180.600 C 247.572 180.380,247.314 179.750,247.000 179.200 C 246.686 178.650,246.428 178.380,246.428 178.600 M300.200 179.414 C 299.200 179.896,299.166 179.951,300.000 179.748 C 301.133 179.471,302.407 178.821,301.800 178.830 C 301.580 178.833,300.860 179.096,300.200 179.414 M295.800 181.014 C 294.800 181.496,294.766 181.551,295.600 181.348 C 296.733 181.071,298.007 180.421,297.400 180.430 C 297.180 180.433,296.460 180.696,295.800 181.014 M289.000 183.414 C 288.000 183.896,287.966 183.951,288.800 183.748 C 289.933 183.471,291.207 182.821,290.600 182.830 C 290.380 182.833,289.660 183.096,289.000 183.414 M249.680 187.800 C 249.680 188.240,249.824 189.050,250.000 189.600 C 250.254 190.392,250.320 190.433,250.320 189.800 C 250.320 189.360,250.176 188.550,250.000 188.000 C 249.746 187.208,249.680 187.167,249.680 187.800 M270.100 190.196 C 269.385 190.507,268.800 190.851,268.800 190.960 C 268.800 191.152,271.628 190.078,271.967 189.758 C 272.316 189.427,271.347 189.654,270.100 190.196 M268.909 194.000 C 268.909 194.990,268.987 195.395,269.082 194.900 C 269.178 194.405,269.178 193.595,269.082 193.100 C 268.987 192.605,268.909 193.010,268.909 194.000 M148.909 195.200 C 148.909 196.190,148.987 196.595,149.082 196.100 C 149.178 195.605,149.178 194.795,149.082 194.300 C 148.987 193.805,148.909 194.210,148.909 195.200 M250.909 195.200 C 250.909 196.190,250.987 196.595,251.082 196.100 C 251.178 195.605,251.178 194.795,251.082 194.300 C 250.987 193.805,250.909 194.210,250.909 195.200 M148.520 200.000 C 148.520 201.210,148.595 201.705,148.687 201.100 C 148.778 200.495,148.778 199.505,148.687 198.900 C 148.595 198.295,148.520 198.790,148.520 200.000 M251.320 200.000 C 251.320 201.210,251.395 201.705,251.487 201.100 C 251.578 200.495,251.578 199.505,251.487 198.900 C 251.395 198.295,251.320 198.790,251.320 200.000 M148.909 204.800 C 148.909 205.790,148.987 206.195,149.082 205.700 C 149.178 205.205,149.178 204.395,149.082 203.900 C 148.987 203.405,148.909 203.810,148.909 204.800 M250.909 204.800 C 250.909 205.790,250.987 206.195,251.082 205.700 C 251.178 205.205,251.178 204.395,251.082 203.900 C 250.987 203.405,250.909 203.810,250.909 204.800 M268.909 206.000 C 268.909 206.990,268.987 207.395,269.082 206.900 C 269.178 206.405,269.178 205.595,269.082 205.100 C 268.987 204.605,268.909 205.010,268.909 206.000 M268.493 209.200 C 268.493 209.970,268.575 210.285,268.676 209.900 C 268.776 209.515,268.776 208.885,268.676 208.500 C 268.575 208.115,268.493 208.430,268.493 209.200 M149.680 210.200 C 149.680 210.640,149.824 211.450,150.000 212.000 C 150.254 212.792,150.320 212.833,150.320 212.200 C 150.320 211.760,150.176 210.950,150.000 210.400 C 149.746 209.608,149.680 209.567,149.680 210.200 M267.400 214.800 C 267.248 215.491,267.207 216.141,267.309 216.242 C 267.411 216.344,267.609 215.853,267.750 215.150 C 267.891 214.447,267.931 213.798,267.841 213.708 C 267.750 213.617,267.552 214.109,267.400 214.800 M246.865 220.217 C 246.195 221.688,246.323 222.002,247.047 220.665 C 247.386 220.040,247.588 219.454,247.496 219.363 C 247.405 219.271,247.121 219.656,246.865 220.217 M265.829 220.629 C 265.681 221.215,265.638 221.772,265.732 221.866 C 265.827 221.960,266.024 221.558,266.171 220.971 C 266.319 220.385,266.362 219.828,266.268 219.734 C 266.173 219.640,265.976 220.042,265.829 220.629 M264.844 223.644 C 264.598 224.351,264.466 225.000,264.552 225.085 C 264.638 225.171,264.909 224.662,265.156 223.956 C 265.402 223.249,265.534 222.600,265.448 222.515 C 265.362 222.429,265.091 222.938,264.844 223.644 M155.400 225.600 C 155.741 226.260,156.111 226.800,156.221 226.800 C 156.331 226.800,156.141 226.260,155.800 225.600 C 155.459 224.940,155.089 224.400,154.979 224.400 C 154.869 224.400,155.059 224.940,155.400 225.600 M241.140 230.288 C 239.208 233.095,234.179 238.213,231.106 240.498 C 227.986 242.818,227.509 243.442,230.300 241.552 C 233.771 239.201,243.904 228.400,242.638 228.400 C 242.528 228.400,241.854 229.249,241.140 230.288 M261.482 231.411 C 260.892 232.615,260.494 233.600,260.598 233.600 C 260.867 233.600,262.884 229.551,262.705 229.371 C 262.623 229.289,262.073 230.207,261.482 231.411 M158.839 230.800 C 160.122 232.780,167.432 240.016,169.700 241.552 C 172.484 243.437,172.017 242.821,168.900 240.496 C 166.303 238.560,162.031 234.353,159.256 231.000 C 158.032 229.521,158.000 229.506,158.839 230.800 M139.400 237.014 C 138.267 237.560,139.104 237.501,140.635 236.927 C 140.874 236.838,141.552 237.492,142.141 238.382 C 142.730 239.272,143.307 240.000,143.425 240.000 C 143.542 240.000,143.081 239.190,142.400 238.200 C 141.019 236.193,141.066 236.212,139.400 237.014 M132.600 239.414 C 131.600 239.896,131.566 239.951,132.400 239.748 C 133.533 239.471,134.807 238.821,134.200 238.830 C 133.980 238.833,133.260 239.096,132.600 239.414 M128.200 241.014 C 127.200 241.496,127.166 241.551,128.000 241.348 C 129.133 241.071,130.407 240.421,129.800 240.430 C 129.580 240.433,128.860 240.696,128.200 241.014 M144.336 241.500 C 144.770 242.105,145.784 243.320,146.588 244.200 C 147.396 245.084,147.113 244.592,145.953 243.100 C 143.883 240.435,142.802 239.365,144.336 241.500 M252.890 244.387 C 251.069 246.580,248.099 249.663,246.290 251.239 C 242.777 254.299,241.113 255.891,242.600 254.770 C 246.626 251.737,252.889 245.375,255.666 241.500 C 257.185 239.381,256.171 240.435,252.890 244.387 M121.400 243.414 C 120.400 243.896,120.366 243.951,121.200 243.748 C 122.333 243.471,123.607 242.821,123.000 242.830 C 122.780 242.833,122.060 243.096,121.400 243.414 M225.500 244.229 C 224.005 245.040,224.096 245.378,225.600 244.600 C 226.260 244.259,226.800 243.894,226.800 243.790 C 226.800 243.532,226.757 243.547,225.500 244.229 M149.600 247.741 C 150.590 248.800,152.480 250.584,153.800 251.705 C 156.555 254.044,155.597 253.045,151.000 248.782 C 149.240 247.150,148.610 246.681,149.600 247.741 M179.200 247.000 C 179.750 247.314,180.380 247.572,180.600 247.572 C 180.820 247.572,180.550 247.314,180.000 247.000 C 179.450 246.686,178.820 246.428,178.600 246.428 C 178.380 246.428,178.650 246.686,179.200 247.000 M220.000 247.000 C 219.450 247.314,219.180 247.572,219.400 247.572 C 219.620 247.572,220.250 247.314,220.800 247.000 C 221.350 246.686,221.620 246.428,221.400 246.428 C 221.180 246.428,220.550 246.686,220.000 247.000 M110.200 247.414 C 109.200 247.896,109.166 247.951,110.000 247.748 C 111.133 247.471,112.407 246.821,111.800 246.830 C 111.580 246.833,110.860 247.096,110.200 247.414 M183.400 248.614 C 184.060 248.917,184.870 249.158,185.200 249.152 C 185.530 249.145,185.170 248.897,184.400 248.600 C 182.574 247.897,181.855 247.907,183.400 248.614 M215.600 248.600 C 214.830 248.897,214.470 249.145,214.800 249.152 C 215.130 249.158,215.940 248.917,216.600 248.614 C 218.145 247.907,217.426 247.897,215.600 248.600 M210.400 250.000 C 209.608 250.254,209.567 250.320,210.200 250.320 C 210.640 250.320,211.450 250.176,212.000 250.000 C 212.792 249.746,212.833 249.680,212.200 249.680 C 211.760 249.680,210.950 249.824,210.400 250.000 M99.000 251.414 C 98.000 251.896,97.966 251.951,98.800 251.748 C 99.933 251.471,101.207 250.821,100.600 250.830 C 100.380 250.833,99.660 251.096,99.000 251.414 M194.300 251.082 C 194.795 251.178,195.605 251.178,196.100 251.082 C 196.595 250.987,196.190 250.909,195.200 250.909 C 194.210 250.909,193.805 250.987,194.300 251.082 M203.900 251.082 C 204.395 251.178,205.205 251.178,205.700 251.082 C 206.195 250.987,205.790 250.909,204.800 250.909 C 203.810 250.909,203.405 250.987,203.900 251.082 M198.900 251.487 C 199.505 251.578,200.495 251.578,201.100 251.487 C 201.705 251.395,201.210 251.320,200.000 251.320 C 198.790 251.320,198.295 251.395,198.900 251.487 M156.682 254.041 C 157.225 254.715,160.800 257.346,160.800 257.073 C 160.800 256.976,159.765 256.119,158.500 255.170 C 157.235 254.221,156.417 253.713,156.682 254.041 M87.800 255.414 C 86.800 255.896,86.766 255.951,87.600 255.748 C 88.733 255.471,90.007 254.821,89.400 254.830 C 89.180 254.833,88.460 255.096,87.800 255.414 M76.600 259.414 C 75.600 259.896,75.566 259.951,76.400 259.748 C 77.533 259.471,78.807 258.821,78.200 258.830 C 77.980 258.833,77.260 259.096,76.600 259.414 M163.600 258.979 C 163.600 259.089,164.140 259.459,164.800 259.800 C 165.460 260.141,166.000 260.331,166.000 260.221 C 166.000 260.111,165.460 259.741,164.800 259.400 C 164.140 259.059,163.600 258.869,163.600 258.979 M72.200 261.014 C 71.200 261.496,71.166 261.551,72.000 261.348 C 73.133 261.071,74.407 260.421,73.800 260.430 C 73.580 260.433,72.860 260.696,72.200 261.014 M231.200 261.600 C 229.990 262.239,229.141 262.771,229.313 262.781 C 229.738 262.807,233.600 260.836,233.600 260.593 C 233.600 260.326,233.655 260.303,231.200 261.600 M65.400 263.414 C 64.400 263.896,64.366 263.951,65.200 263.748 C 66.333 263.471,67.607 262.821,67.000 262.830 C 66.780 262.833,66.060 263.096,65.400 263.414 M226.400 263.800 C 225.850 264.114,225.580 264.372,225.800 264.372 C 226.020 264.372,226.650 264.114,227.200 263.800 C 227.750 263.486,228.020 263.228,227.800 263.228 C 227.580 263.228,226.950 263.486,226.400 263.800 M61.000 265.014 C 60.000 265.496,59.966 265.551,60.800 265.348 C 61.933 265.071,63.207 264.421,62.600 264.430 C 62.380 264.433,61.660 264.696,61.000 265.014 M175.200 264.733 C 175.530 264.936,176.250 265.224,176.800 265.371 C 177.495 265.557,177.617 265.525,177.200 265.267 C 176.870 265.064,176.150 264.776,175.600 264.629 C 174.905 264.443,174.783 264.475,175.200 264.733 M223.400 265.014 C 222.400 265.496,222.366 265.551,223.200 265.348 C 224.333 265.071,225.607 264.421,225.000 264.430 C 224.780 264.433,224.060 264.696,223.400 265.014 M179.200 266.200 C 179.970 266.497,180.870 266.739,181.200 266.739 C 181.530 266.739,181.170 266.497,180.400 266.200 C 179.630 265.903,178.730 265.661,178.400 265.661 C 178.070 265.661,178.430 265.903,179.200 266.200 M219.600 266.200 C 218.830 266.497,218.470 266.739,218.800 266.739 C 219.130 266.739,220.030 266.497,220.800 266.200 C 221.570 265.903,221.930 265.661,221.600 265.661 C 221.270 265.661,220.370 265.903,219.600 266.200 M54.200 267.414 C 53.200 267.896,53.166 267.951,54.000 267.748 C 55.133 267.471,56.407 266.821,55.800 266.830 C 55.580 266.833,54.860 267.096,54.200 267.414 M49.800 269.014 C 48.800 269.496,48.766 269.551,49.600 269.348 C 50.733 269.071,52.007 268.421,51.400 268.430 C 51.180 268.433,50.460 268.696,49.800 269.014 M208.500 268.676 C 208.885 268.776,209.515 268.776,209.900 268.676 C 210.285 268.575,209.970 268.493,209.200 268.493 C 208.430 268.493,208.115 268.575,208.500 268.676 M193.105 269.083 C 193.602 269.179,194.322 269.175,194.705 269.075 C 195.087 268.975,194.680 268.896,193.800 268.901 C 192.920 268.905,192.607 268.987,193.105 269.083 M204.700 269.082 C 205.195 269.178,206.005 269.178,206.500 269.082 C 206.995 268.987,206.590 268.909,205.600 268.909 C 204.610 268.909,204.205 268.987,204.700 269.082 M43.000 271.414 C 42.000 271.896,41.966 271.951,42.800 271.748 C 43.933 271.471,45.207 270.821,44.600 270.830 C 44.380 270.833,43.660 271.096,43.000 271.414 M38.600 273.014 C 37.600 273.496,37.566 273.551,38.400 273.348 C 39.533 273.071,40.807 272.421,40.200 272.430 C 39.980 272.433,39.260 272.696,38.600 273.014 M31.800 275.414 C 30.800 275.896,30.766 275.951,31.600 275.748 C 32.733 275.471,34.007 274.821,33.400 274.830 C 33.180 274.833,32.460 275.096,31.800 275.414 M27.400 277.014 C 26.400 277.496,26.366 277.551,27.200 277.348 C 28.333 277.071,29.607 276.421,29.000 276.430 C 28.780 276.433,28.060 276.696,27.400 277.014 " stroke="none" fill="#8c8c8c" fill-rule="evenodd"></path><path id="path4" d="M198.300 149.093 C 199.235 149.177,200.765 149.177,201.700 149.093 C 202.635 149.009,201.870 148.940,200.000 148.940 C 198.130 148.940,197.365 149.009,198.300 149.093 M193.300 149.476 C 193.685 149.576,194.315 149.576,194.700 149.476 C 195.085 149.375,194.770 149.293,194.000 149.293 C 193.230 149.293,192.915 149.375,193.300 149.476 M383.800 149.814 C 382.800 150.296,382.766 150.351,383.600 150.148 C 384.733 149.871,386.007 149.221,385.400 149.230 C 385.180 149.233,384.460 149.496,383.800 149.814 M186.200 150.800 C 185.696 151.017,185.622 151.144,186.000 151.144 C 186.330 151.144,186.960 150.989,187.400 150.800 C 187.904 150.583,187.978 150.456,187.600 150.456 C 187.270 150.456,186.640 150.611,186.200 150.800 M212.600 150.800 C 213.040 150.989,213.670 151.144,214.000 151.144 C 214.378 151.144,214.304 151.017,213.800 150.800 C 213.360 150.611,212.730 150.456,212.400 150.456 C 212.022 150.456,212.096 150.583,212.600 150.800 M379.400 151.414 C 378.400 151.896,378.366 151.951,379.200 151.748 C 380.333 151.471,381.607 150.821,381.000 150.830 C 380.780 150.833,380.060 151.096,379.400 151.414 M217.600 152.333 C 217.930 152.536,218.650 152.824,219.200 152.971 C 219.895 153.157,220.017 153.125,219.600 152.867 C 219.270 152.664,218.550 152.376,218.000 152.229 C 217.305 152.043,217.183 152.075,217.600 152.333 M176.700 154.427 C 175.875 154.863,175.200 155.308,175.200 155.418 C 175.200 155.596,178.359 154.119,178.767 153.751 C 179.227 153.334,178.025 153.728,176.700 154.427 M221.233 153.751 C 221.642 154.121,224.800 155.595,224.800 155.416 C 224.800 155.189,221.781 153.600,221.349 153.600 C 221.194 153.600,221.142 153.668,221.233 153.751 M368.200 155.414 C 367.200 155.896,367.166 155.951,368.000 155.748 C 369.133 155.471,370.407 154.821,369.800 154.830 C 369.580 154.833,368.860 155.096,368.200 155.414 M167.578 160.533 C 164.677 162.934,160.599 167.190,159.236 169.239 C 158.493 170.357,158.565 170.315,159.643 169.000 C 161.428 166.821,167.040 161.239,169.000 159.690 C 169.880 158.995,170.500 158.421,170.378 158.413 C 170.256 158.406,168.996 159.360,167.578 160.533 M231.000 159.657 C 234.313 162.402,238.135 166.287,240.286 169.095 C 242.800 172.377,243.526 172.969,241.525 170.104 C 239.870 167.735,232.678 160.446,230.800 159.234 C 229.499 158.395,229.513 158.425,231.000 159.657 M357.000 159.414 C 356.000 159.896,355.966 159.951,356.800 159.748 C 357.933 159.471,359.207 158.821,358.600 158.830 C 358.380 158.833,357.660 159.096,357.000 159.414 M345.800 163.414 C 344.800 163.896,344.766 163.951,345.600 163.748 C 346.733 163.471,348.007 162.821,347.400 162.830 C 347.180 162.833,346.460 163.096,345.800 163.414 M334.600 167.414 C 333.600 167.896,333.566 167.951,334.400 167.748 C 335.533 167.471,336.807 166.821,336.200 166.830 C 335.980 166.833,335.260 167.096,334.600 167.414 M154.380 176.839 C 153.920 177.740,153.613 178.546,153.697 178.630 C 153.781 178.714,154.241 177.976,154.719 176.991 C 155.809 174.747,155.515 174.615,154.380 176.839 M245.281 176.991 C 245.759 177.976,246.219 178.714,246.303 178.630 C 246.484 178.449,244.868 175.200,244.597 175.200 C 244.494 175.200,244.802 176.006,245.281 176.991 M297.800 180.614 C 296.800 181.096,296.766 181.151,297.600 180.948 C 298.733 180.671,300.007 180.021,299.400 180.030 C 299.180 180.033,298.460 180.296,297.800 180.614 M291.000 183.014 C 290.000 183.496,289.966 183.551,290.800 183.348 C 291.933 183.071,293.207 182.421,292.600 182.430 C 292.380 182.433,291.660 182.696,291.000 183.014 M286.600 184.614 C 285.600 185.096,285.566 185.151,286.400 184.948 C 287.533 184.671,288.807 184.021,288.200 184.030 C 287.980 184.033,287.260 184.296,286.600 184.614 M282.200 186.214 C 281.200 186.696,281.166 186.751,282.000 186.548 C 283.133 186.271,284.407 185.621,283.800 185.630 C 283.580 185.633,282.860 185.896,282.200 186.214 M272.200 189.814 C 271.200 190.296,271.166 190.351,272.000 190.148 C 273.133 189.871,274.407 189.221,273.800 189.230 C 273.580 189.233,272.860 189.496,272.200 189.814 M269.361 200.000 C 269.361 203.410,269.422 204.805,269.497 203.100 C 269.572 201.395,269.572 198.605,269.497 196.900 C 269.422 195.195,269.361 196.590,269.361 200.000 M148.940 200.000 C 148.940 201.870,149.009 202.635,149.093 201.700 C 149.177 200.765,149.177 199.235,149.093 198.300 C 149.009 197.365,148.940 198.130,148.940 200.000 M250.940 200.000 C 250.940 201.870,251.009 202.635,251.093 201.700 C 251.177 200.765,251.177 199.235,251.093 198.300 C 251.009 197.365,250.940 198.130,250.940 200.000 M268.893 208.800 C 268.893 209.570,268.975 209.885,269.076 209.500 C 269.176 209.115,269.176 208.485,269.076 208.100 C 268.975 207.715,268.893 208.030,268.893 208.800 M153.200 220.547 C 153.200 220.980,155.188 224.800,155.413 224.800 C 155.523 224.800,155.139 223.855,154.559 222.700 C 153.443 220.479,153.200 220.094,153.200 220.547 M245.281 223.009 C 244.802 223.994,244.494 224.800,244.597 224.800 C 244.868 224.800,246.484 221.551,246.303 221.370 C 246.219 221.286,245.759 222.024,245.281 223.009 M264.465 225.417 C 263.795 226.888,263.923 227.202,264.647 225.865 C 264.986 225.240,265.188 224.654,265.096 224.563 C 265.005 224.471,264.721 224.856,264.465 225.417 M263.265 228.217 C 262.595 229.688,262.723 230.002,263.447 228.665 C 263.786 228.040,263.988 227.454,263.896 227.363 C 263.805 227.271,263.521 227.656,263.265 228.217 M158.475 229.896 C 160.130 232.265,167.322 239.554,169.200 240.766 C 170.501 241.605,170.487 241.575,169.000 240.343 C 165.687 237.598,161.865 233.713,159.714 230.905 C 157.200 227.623,156.474 227.031,158.475 229.896 M239.656 231.727 C 238.007 233.865,233.977 237.877,231.000 240.343 C 229.521 241.569,229.506 241.600,230.800 240.760 C 232.479 239.671,239.483 232.732,240.753 230.900 C 242.176 228.848,241.463 229.385,239.656 231.727 M257.455 238.800 C 256.431 240.340,255.678 241.600,255.782 241.600 C 255.885 241.600,256.666 240.565,257.515 239.300 C 259.398 236.499,259.695 236.000,259.482 236.000 C 259.392 236.000,258.480 237.260,257.455 238.800 M134.600 239.014 C 133.600 239.496,133.566 239.551,134.400 239.348 C 135.533 239.071,136.807 238.421,136.200 238.430 C 135.980 238.433,135.260 238.696,134.600 239.014 M143.200 240.400 C 143.670 241.060,144.144 241.600,144.254 241.600 C 144.364 241.600,144.070 241.060,143.600 240.400 C 143.130 239.740,142.656 239.200,142.546 239.200 C 142.436 239.200,142.730 239.740,143.200 240.400 M130.200 240.614 C 129.200 241.096,129.166 241.151,130.000 240.948 C 131.133 240.671,132.407 240.021,131.800 240.030 C 131.580 240.033,130.860 240.296,130.200 240.614 M145.551 243.538 C 146.221 244.385,147.087 245.330,147.474 245.638 C 147.861 245.947,147.390 245.255,146.426 244.100 C 144.406 241.678,143.738 241.249,145.551 243.538 M253.574 244.100 C 252.610 245.255,252.139 245.947,252.526 245.638 C 253.304 245.018,255.768 242.000,255.496 242.000 C 255.402 242.000,254.537 242.945,253.574 244.100 M175.200 244.597 C 175.200 244.868,178.449 246.484,178.630 246.303 C 178.714 246.219,177.976 245.759,176.991 245.281 C 176.006 244.802,175.200 244.494,175.200 244.597 M222.800 245.400 C 221.810 245.930,221.142 246.372,221.316 246.382 C 221.741 246.406,224.800 244.834,224.800 244.592 C 224.800 244.327,224.817 244.320,222.800 245.400 M150.600 249.200 C 151.906 250.520,153.065 251.600,153.175 251.600 C 153.285 251.600,152.306 250.520,151.000 249.200 C 149.694 247.880,148.535 246.800,148.425 246.800 C 148.315 246.800,149.294 247.880,150.600 249.200 M248.987 249.300 L 246.600 251.800 249.100 249.413 C 250.475 248.099,251.600 246.974,251.600 246.913 C 251.600 246.617,251.205 246.978,248.987 249.300 M212.600 249.200 C 212.096 249.417,212.022 249.544,212.400 249.544 C 212.730 249.544,213.360 249.389,213.800 249.200 C 214.304 248.983,214.378 248.856,214.000 248.856 C 213.670 248.856,213.040 249.011,212.600 249.200 M104.200 249.814 C 103.200 250.296,103.166 250.351,104.000 250.148 C 105.133 249.871,106.407 249.221,105.800 249.230 C 105.580 249.233,104.860 249.496,104.200 249.814 M198.300 251.093 C 199.235 251.177,200.765 251.177,201.700 251.093 C 202.635 251.009,201.870 250.940,200.000 250.940 C 198.130 250.940,197.365 251.009,198.300 251.093 M153.960 252.145 C 154.562 252.878,159.010 256.451,160.000 256.997 C 160.886 257.486,160.537 257.179,156.800 254.187 C 154.930 252.689,153.652 251.771,153.960 252.145 M244.975 252.900 L 243.800 254.200 245.100 253.025 C 245.815 252.379,246.400 251.794,246.400 251.725 C 246.400 251.416,246.070 251.688,244.975 252.900 M240.587 256.137 C 235.347 259.980,235.620 259.764,237.000 258.974 C 238.772 257.961,243.123 254.849,243.404 254.394 C 243.758 253.821,243.670 253.875,240.587 256.137 M234.300 260.229 C 232.805 261.040,232.896 261.378,234.400 260.600 C 235.060 260.259,235.600 259.894,235.600 259.790 C 235.600 259.532,235.557 259.547,234.300 260.229 M74.200 260.614 C 73.200 261.096,73.166 261.151,74.000 260.948 C 75.133 260.671,76.407 260.021,75.800 260.030 C 75.580 260.033,74.860 260.296,74.200 260.614 M165.200 260.187 C 165.200 260.297,166.100 260.843,167.200 261.400 C 168.300 261.957,169.200 262.323,169.200 262.213 C 169.200 262.103,168.300 261.557,167.200 261.000 C 166.100 260.443,165.200 260.077,165.200 260.187 M171.200 263.400 C 171.750 263.714,172.380 263.972,172.600 263.972 C 172.820 263.972,172.550 263.714,172.000 263.400 C 171.450 263.086,170.820 262.828,170.600 262.828 C 170.380 262.828,170.650 263.086,171.200 263.400 M228.000 263.400 C 227.450 263.714,227.180 263.972,227.400 263.972 C 227.620 263.972,228.250 263.714,228.800 263.400 C 229.350 263.086,229.620 262.828,229.400 262.828 C 229.180 262.828,228.550 263.086,228.000 263.400 M63.000 264.614 C 62.000 265.096,61.966 265.151,62.800 264.948 C 63.933 264.671,65.207 264.021,64.600 264.030 C 64.380 264.033,63.660 264.296,63.000 264.614 M174.000 264.600 C 174.550 264.914,175.180 265.172,175.400 265.172 C 175.620 265.172,175.350 264.914,174.800 264.600 C 174.250 264.286,173.620 264.028,173.400 264.028 C 173.180 264.028,173.450 264.286,174.000 264.600 M56.200 267.014 C 55.200 267.496,55.166 267.551,56.000 267.348 C 57.133 267.071,58.407 266.421,57.800 266.430 C 57.580 266.433,56.860 266.696,56.200 267.014 M51.800 268.614 C 50.800 269.096,50.766 269.151,51.600 268.948 C 52.733 268.671,54.007 268.021,53.400 268.030 C 53.180 268.033,52.460 268.296,51.800 268.614 M190.500 269.076 C 190.885 269.176,191.515 269.176,191.900 269.076 C 192.285 268.975,191.970 268.893,191.200 268.893 C 190.430 268.893,190.115 268.975,190.500 269.076 M207.905 269.083 C 208.402 269.179,209.122 269.175,209.505 269.075 C 209.887 268.975,209.480 268.896,208.600 268.901 C 207.720 268.905,207.407 268.987,207.905 269.083 M196.918 269.498 C 198.633 269.573,201.333 269.572,202.918 269.497 C 204.503 269.421,203.100 269.359,199.800 269.360 C 196.500 269.361,195.203 269.422,196.918 269.498 M45.000 271.014 C 44.000 271.496,43.966 271.551,44.800 271.348 C 45.933 271.071,47.207 270.421,46.600 270.430 C 46.380 270.433,45.660 270.696,45.000 271.014 M40.600 272.614 C 39.600 273.096,39.566 273.151,40.400 272.948 C 41.533 272.671,42.807 272.021,42.200 272.030 C 41.980 272.033,41.260 272.296,40.600 272.614 M33.800 275.014 C 32.800 275.496,32.766 275.551,33.600 275.348 C 34.733 275.071,36.007 274.421,35.400 274.430 C 35.180 274.433,34.460 274.696,33.800 275.014 M29.400 276.614 C 28.400 277.096,28.366 277.151,29.200 276.948 C 30.333 276.671,31.607 276.021,31.000 276.030 C 30.780 276.033,30.060 276.296,29.400 276.614 M22.600 279.014 C 21.600 279.496,21.566 279.551,22.400 279.348 C 23.533 279.071,24.807 278.421,24.200 278.430 C 23.980 278.433,23.260 278.696,22.600 279.014 " stroke="none" fill="#a0a0a0" fill-rule="evenodd"></path></g></svg>